<?xml version="1.0" encoding="UTF-8"?>
<svg width="850" height="300" xmlns="http://www.w3.org/2000/svg">
  <!-- 背景 -->
  <rect width="850" height="300" fill="#f8f9fa" rx="10" ry="10"/>
  
  <!-- 标题 -->
  <text x="430" y="30" font-family="Arial, sans-serif" font-size="20" text-anchor="middle" font-weight="bold">Feat Cloud 生命周期</text>
  
  <!-- 阶段框 -->
  <!-- 创建实例 -->
  <rect x="50" y="80" width="120" height="80" rx="10" ry="10" fill="#f9f" stroke="#333" stroke-width="2"/>
  <text x="110" y="115" font-family="Arial, sans-serif" font-size="16" text-anchor="middle" font-weight="bold">创建实例</text>
  <text x="110" y="140" font-family="Arial, sans-serif" font-size="12" text-anchor="middle">@Bean</text>
  <text x="110" y="155" font-family="Arial, sans-serif" font-size="12" text-anchor="middle">@Controller</text>
  
  <!-- 属性填充 -->
  <rect x="210" y="80" width="120" height="80" rx="10" ry="10" fill="#bbf" stroke="#333" stroke-width="2"/>
  <text x="270" y="115" font-family="Arial, sans-serif" font-size="16" text-anchor="middle" font-weight="bold">属性填充</text>
  <text x="270" y="140" font-family="Arial, sans-serif" font-size="12" text-anchor="middle">@Autowired</text>
  <text x="270" y="155" font-family="Arial, sans-serif" font-size="12" text-anchor="middle">setter方法</text>
  
  <!-- 初始化 -->
  <rect x="370" y="80" width="120" height="80" rx="10" ry="10" fill="#bfb" stroke="#333" stroke-width="2"/>
  <text x="430" y="115" font-family="Arial, sans-serif" font-size="16" text-anchor="middle" font-weight="bold">初始化</text>
  <text x="430" y="140" font-family="Arial, sans-serif" font-size="12" text-anchor="middle">@PostConstruct</text>
  <text x="430" y="155" font-family="Arial, sans-serif" font-size="12" text-anchor="middle">init方法</text>
  
  <!-- 使用Bean -->
  <rect x="530" y="80" width="120" height="80" rx="10" ry="10" fill="#fbf" stroke="#333" stroke-width="2"/>
  <text x="590" y="115" font-family="Arial, sans-serif" font-size="16" text-anchor="middle" font-weight="bold">使用Bean</text>
  <text x="590" y="140" font-family="Arial, sans-serif" font-size="12" text-anchor="middle">依赖注入</text>
  <text x="590" y="155" font-family="Arial, sans-serif" font-size="12" text-anchor="middle">业务逻辑</text>
  
  <!-- 销毁 -->
  <rect x="690" y="80" width="120" height="80" rx="10" ry="10" fill="#fbb" stroke="#333" stroke-width="2"/>
  <text x="750" y="115" font-family="Arial, sans-serif" font-size="16" text-anchor="middle" font-weight="bold">销毁</text>
  <text x="750" y="140" font-family="Arial, sans-serif" font-size="12" text-anchor="middle">@PreDestroy</text>
  <text x="750" y="155" font-family="Arial, sans-serif" font-size="12" text-anchor="middle">资源释放</text>
  
  <!-- 连接箭头 -->
  <!-- 创建实例 -> 属性填充 -->
  <line x1="170" y1="120" x2="210" y2="120" stroke="#333" stroke-width="2"/>
  <polygon points="205,115 210,120 205,125" fill="#333"/>
  
  <!-- 属性填充 -> 初始化 -->
  <line x1="330" y1="120" x2="370" y2="120" stroke="#333" stroke-width="2"/>
  <polygon points="365,115 370,120 365,125" fill="#333"/>
  
  <!-- 初始化 -> 使用Bean -->
  <line x1="490" y1="120" x2="530" y2="120" stroke="#333" stroke-width="2"/>
  <polygon points="525,115 530,120 525,125" fill="#333"/>
  
  <!-- 使用Bean -> 销毁 -->
  <line x1="650" y1="120" x2="690" y2="120" stroke="#333" stroke-width="2"/>
  <polygon points="685,115 690,120 685,125" fill="#333"/>
  
  <text x="110" y="200" font-family="Arial, sans-serif" font-size="12" text-anchor="middle">服务启动时</text>
  <text x="270" y="200" font-family="Arial, sans-serif" font-size="12" text-anchor="middle">实例创建后</text>
  <text x="430" y="200" font-family="Arial, sans-serif" font-size="12" text-anchor="middle">属性填充后</text>
  <text x="590" y="200" font-family="Arial, sans-serif" font-size="12" text-anchor="middle">初始化完成后</text>
  <text x="750" y="200" font-family="Arial, sans-serif" font-size="12" text-anchor="middle">应用关闭时</text>
  
  <!-- 销毁时机说明 -->
  <text x="750" y="220" font-family="Arial, sans-serif" font-size="10" text-anchor="middle">1. System.exit()</text>
  <text x="750" y="235" font-family="Arial, sans-serif" font-size="10" text-anchor="middle">2. JVM shutdown hook</text>
  <text x="750" y="250" font-family="Arial, sans-serif" font-size="10" text-anchor="middle">3. server.shutdown()</text>
</svg>