<?xml version="1.0" encoding="UTF-8"?>
<svg width="800" height="650" xmlns="http://www.w3.org/2000/svg">
  <!-- 背景和标题 -->
  <rect width="800" height="650" fill="#f8f9fa" />
  <text x="400" y="40" font-family="Arial, sans-serif" font-size="24" font-weight="bold" text-anchor="middle" fill="#333">Feat Cloud 静态转码 vs 传统反射对比</text>
  
  <!-- 左侧：传统反射方式 -->
  <rect x="50" y="80" width="300" height="50" rx="5" fill="#e74c3c" />
  <text x="200" y="110" font-family="Arial, sans-serif" font-size="16" font-weight="bold" text-anchor="middle" fill="white">传统框架（运行时反射）</text>
  
  <!-- 右侧：Feat Cloud静态转码 -->
  <rect x="450" y="80" width="300" height="50" rx="5" fill="#2ecc71" />
  <text x="600" y="110" font-family="Arial, sans-serif" font-size="16" font-weight="bold" text-anchor="middle" fill="white">Feat Cloud（编译期静态转码）</text>
  
  <!-- 左侧流程：传统反射 -->
  <!-- 步骤1 -->
  <rect x="50" y="160" width="300" height="60" rx="5" fill="#f5b7b1" stroke="#e74c3c" stroke-width="2" />
  <text x="200" y="190" font-family="Arial, sans-serif" font-size="14" text-anchor="middle" fill="#333">运行时扫描和解析注解</text>
  <text x="200" y="210" font-family="Arial, sans-serif" font-size="12" text-anchor="middle" fill="#555">(@Bean, @Autowired, @Controller)</text>
  
  <!-- 步骤2 -->
  <rect x="50" y="250" width="300" height="60" rx="5" fill="#f5b7b1" stroke="#e74c3c" stroke-width="2" />
  <text x="200" y="280" font-family="Arial, sans-serif" font-size="14" text-anchor="middle" fill="#333">通过反射创建实例</text>
  <text x="200" y="300" font-family="Arial, sans-serif" font-size="12" text-anchor="middle" fill="#555">(Class.newInstance())</text>
  
  <!-- 步骤3 -->
  <rect x="50" y="340" width="300" height="60" rx="5" fill="#f5b7b1" stroke="#e74c3c" stroke-width="2" />
  <text x="200" y="370" font-family="Arial, sans-serif" font-size="14" text-anchor="middle" fill="#333">通过反射注入依赖</text>
  <text x="200" y="390" font-family="Arial, sans-serif" font-size="12" text-anchor="middle" fill="#555">(field.set(instance, dependency))</text>
  
  <!-- 步骤4 -->
  <rect x="50" y="430" width="300" height="60" rx="5" fill="#f5b7b1" stroke="#e74c3c" stroke-width="2" />
  <text x="200" y="460" font-family="Arial, sans-serif" font-size="14" text-anchor="middle" fill="#333">创建动态代理</text>
  <text x="200" y="480" font-family="Arial, sans-serif" font-size="12" text-anchor="middle" fill="#555">(JDK Proxy / CGLIB)</text>
  
  <!-- 步骤5 -->
  <rect x="50" y="520" width="300" height="60" rx="5" fill="#f5b7b1" stroke="#e74c3c" stroke-width="2" />
  <text x="200" y="550" font-family="Arial, sans-serif" font-size="14" text-anchor="middle" fill="#333">运行时反射调用方法</text>
  <text x="200" y="570" font-family="Arial, sans-serif" font-size="12" text-anchor="middle" fill="#555">(method.invoke(instance, args))</text>
  
  <!-- 右侧流程：Feat Cloud静态转码 -->
  <!-- 步骤1 -->
  <rect x="450" y="160" width="300" height="60" rx="5" fill="#abebc6" stroke="#2ecc71" stroke-width="2" />
  <text x="600" y="190" font-family="Arial, sans-serif" font-size="14" text-anchor="middle" fill="#333">编译期处理注解</text>
  <text x="600" y="210" font-family="Arial, sans-serif" font-size="12" text-anchor="middle" fill="#555">(FeatAnnotationProcessor)</text>
  
  <!-- 步骤2 -->
  <rect x="450" y="250" width="300" height="60" rx="5" fill="#abebc6" stroke="#2ecc71" stroke-width="2" />
  <text x="600" y="280" font-family="Arial, sans-serif" font-size="14" text-anchor="middle" fill="#333">生成Bean加载器类</text>
  <text x="600" y="300" font-family="Arial, sans-serif" font-size="12" text-anchor="middle" fill="#555">(xxxBeanAptLoader)</text>
  
  <!-- 步骤3 -->
  <rect x="450" y="340" width="300" height="60" rx="5" fill="#abebc6" stroke="#2ecc71" stroke-width="2" />
  <text x="600" y="370" font-family="Arial, sans-serif" font-size="14" text-anchor="middle" fill="#333">生成依赖注入代码</text>
  <text x="600" y="390" font-family="Arial, sans-serif" font-size="12" text-anchor="middle" fill="#555">(bean.setXxx(applicationContext.getBean()))</text>
  
  <!-- 步骤4 -->
  <rect x="450" y="430" width="300" height="60" rx="5" fill="#abebc6" stroke="#2ecc71" stroke-width="2" />
  <text x="600" y="460" font-family="Arial, sans-serif" font-size="14" text-anchor="middle" fill="#333">生成路由注册代码</text>
  <text x="600" y="480" font-family="Arial, sans-serif" font-size="12" text-anchor="middle" fill="#555">(router.route("/path", ctx -> {...}))</text>
  
  <!-- 步骤5 -->
  <rect x="450" y="520" width="300" height="60" rx="5" fill="#abebc6" stroke="#2ecc71" stroke-width="2" />
  <text x="600" y="550" font-family="Arial, sans-serif" font-size="14" text-anchor="middle" fill="#333">运行时直接调用生成的代码</text>
  <text x="600" y="570" font-family="Arial, sans-serif" font-size="12" text-anchor="middle" fill="#555">(零反射，高性能)</text>
  
  <!-- 连接箭头 - 左侧 -->
  <line x1="200" y1="130" x2="200" y2="160" stroke="#e74c3c" stroke-width="2" marker-end="url(#arrowhead)" />
  <line x1="200" y1="220" x2="200" y2="250" stroke="#e74c3c" stroke-width="2" marker-end="url(#arrowhead)" />
  <line x1="200" y1="310" x2="200" y2="340" stroke="#e74c3c" stroke-width="2" marker-end="url(#arrowhead)" />
  <line x1="200" y1="400" x2="200" y2="430" stroke="#e74c3c" stroke-width="2" marker-end="url(#arrowhead)" />
  <line x1="200" y1="490" x2="200" y2="520" stroke="#e74c3c" stroke-width="2" marker-end="url(#arrowhead)" />
  
  <!-- 连接箭头 - 右侧 -->
  <line x1="600" y1="130" x2="600" y2="160" stroke="#2ecc71" stroke-width="2" marker-end="url(#arrowhead)" />
  <line x1="600" y1="220" x2="600" y2="250" stroke="#2ecc71" stroke-width="2" marker-end="url(#arrowhead)" />
  <line x1="600" y1="310" x2="600" y2="340" stroke="#2ecc71" stroke-width="2" marker-end="url(#arrowhead)" />
  <line x1="600" y1="400" x2="600" y2="430" stroke="#2ecc71" stroke-width="2" marker-end="url(#arrowhead)" />
  <line x1="600" y1="490" x2="600" y2="520" stroke="#2ecc71" stroke-width="2" marker-end="url(#arrowhead)" />
  
  <!-- 箭头定义 -->
  <defs>
    <marker id="arrowhead" markerWidth="10" markerHeight="7" refX="9" refY="3.5" orient="auto">
      <polygon points="0 0, 10 3.5, 0 7" />
    </marker>
  </defs>
  
  <!-- 编译期与运行时分隔线 -->
  <line x1="400" y1="80" x2="400" y2="580" stroke="#888" stroke-width="2" stroke-dasharray="10,5" />
  
  <!-- 编译期与运行时标签 -->
  <rect x="50" y="590" width="300" height="30" rx="5" fill="#f39c12" opacity="0.7" />
  <text x="200" y="612" font-family="Arial, sans-serif" font-size="14" font-weight="bold" text-anchor="middle" fill="#333">运行时处理</text>
  
  <rect x="450" y="590" width="300" height="30" rx="5" fill="#3498db" opacity="0.7" />
  <text x="600" y="612" font-family="Arial, sans-serif" font-size="14" font-weight="bold" text-anchor="middle" fill="#333">编译期处理</text>
</svg>