<?xml version="1.0" encoding="UTF-8"?>
<svg width="800" height="600" xmlns="http://www.w3.org/2000/svg">
    <!-- 根节点 -->
    <circle cx="400" cy="50" r="30" fill="#4CAF50"/>
    <text x="400" y="55" text-anchor="middle" fill="white">/</text>
    
    <!-- 第一层节点 -->
    <circle cx="200" cy="150" r="30" fill="#2196F3"/>
    <text x="200" y="155" text-anchor="middle" fill="white">api</text>
    <line x1="370" y1="70" x2="230" y2="130" stroke="#666" stroke-width="2"/>
    
    <circle cx="400" cy="150" r="30" fill="#2196F3"/>
    <text x="400" y="155" text-anchor="middle" fill="white">user</text>
    <line x1="400" y1="80" x2="400" y2="120" stroke="#666" stroke-width="2"/>
    
    <circle cx="600" cy="150" r="30" fill="#2196F3"/>
    <text x="600" y="155" text-anchor="middle" fill="white">*</text>
    <line x1="430" y1="70" x2="570" y2="130" stroke="#666" stroke-width="2"/>
    
    <!-- 第二层节点 -->
    <circle cx="200" cy="250" r="30" fill="#FF9800"/>
    <text x="200" y="255" text-anchor="middle" fill="white">v1</text>
    <line x1="200" y1="180" x2="200" y2="220" stroke="#666" stroke-width="2"/>
    
    <circle cx="400" cy="250" r="30" fill="#FF9800"/>
    <text x="400" y="255" text-anchor="middle" fill="white">:id</text>
    <line x1="400" y1="180" x2="400" y2="220" stroke="#666" stroke-width="2"/>
    
    <!-- Handler 节点 -->
    <rect x="150" y="350" width="100" height="40" rx="5" fill="#E91E63"/>
    <text x="200" y="375" text-anchor="middle" fill="white">ApiHandler</text>
    <line x1="200" y1="280" x2="200" y2="350" stroke="#666" stroke-width="2" stroke-dasharray="5,5"/>
    
    <rect x="350" y="350" width="100" height="40" rx="5" fill="#E91E63"/>
    <text x="400" y="375" text-anchor="middle" fill="white">UserHandler</text>
    <line x1="400" y1="280" x2="400" y2="350" stroke="#666" stroke-width="2" stroke-dasharray="5,5"/>
    
    <rect x="550" y="350" width="120" height="40" rx="5" fill="#E91E63"/>
    <text x="610" y="375" text-anchor="middle" fill="white">DefaultHandler</text>
    <line x1="600" y1="180" x2="600" y2="350" stroke="#666" stroke-width="2" stroke-dasharray="5,5"/>
    
    <!-- 代码示例 -->
    <rect x="50" y="420" width="700" height="120" rx="5" fill="#f5f5f5" stroke="#ccc"/>
    <text x="60" y="440" font-family="monospace" fill="#333">
        <tspan x="60" dy="0">// 路由绑定示例</tspan>
        <tspan x="60" dy="20">router.route("/api/v1", new ApiHandler()); // 精确匹配</tspan>
        <tspan x="60" dy="20">router.route("/user/:id", new UserHandler()); // 参数匹配</tspan>
        <tspan x="60" dy="20">router.route("/*", new DefaultHandler()); // 通配符匹配</tspan>
    </text>
    
    <!-- 图例 -->
    <circle cx="50" cy="560" r="10" fill="#4CAF50"/>
    <text x="70" y="565" text-anchor="start">根节点</text>
    
    <circle cx="200" cy="560" r="10" fill="#2196F3"/>
    <text x="220" y="565" text-anchor="start">路径节点</text>
    
    <circle cx="350" cy="560" r="10" fill="#FF9800"/>
    <text x="370" y="565" text-anchor="start">参数节点</text>
    
    <rect x="480" y="550" width="20" height="20" rx="5" fill="#E91E63"/>
    <text x="510" y="565" text-anchor="start">处理程序</text>
    
    <line x1="600" y1="560" x2="650" y2="560" stroke="#666" stroke-width="2" stroke-dasharray="5,5"/>
    <text x="660" y="565" text-anchor="start">绑定关系</text>
</svg>